<?xml version="1.0" encoding="UTF-8"?>
<svg width="32" height="32" viewBox="0 0 326.4 225.35133999999996" xmlns="http://www.w3.org/2000/svg" version="1.1">
  <g transform="translate(3.200000,222.151340) scale(1,-1)" style="fill-opacity:1;fill-rule:evenodd;fill:#0366d6">
    <path d="M 45.0 0.0 L 70.0 40.0 L 85.0 40.0 L 70.0 15.0 L 250.0 15.0 L 235.0 40.0 L 250.0 40.0 L 275.0 0.0 L 45.0 0.0 " stroke="#0366d6" stroke-width="0.7" style="stroke-width:0.7;fill-opacity:1;fill-rule:evenodd;fill:#0366d6" />
    <path d="M 0.0 120.0 L 35.0 50.0 L 40.0 50.0 L 75.0 120.0 L 65.0 120.0 L 40.0 70.0 L 15.0 120.0 L 0.0 120.0 " stroke="#0366d6" stroke-width="0.7" style="stroke-width:0.7;fill-opacity:1;fill-rule:evenodd;fill:#0366d6" />
    <path d="M 45.0 50.0 L 80.0 120.0 L 105.0 120.0 L 100.0 110.0 L 83.972733 110.0 L 75.0 90.0 L 90.0 90.0 L 85.0 80.0 L 70.0 80.0 L 60.0 60.0 L 75.0 60.0 L 70.0 50.0 L 45.0 50.0 " stroke="#0366d6" stroke-width="0.7" style="stroke-width:0.7;fill-opacity:1;fill-rule:evenodd;fill:#0366d6" />
    <path d="M 75.0 50.0 L 110.0 120.0 L 125.0 120.0 L 95.0 60.0 L 120.0 60.0 L 125.0 50.0 L 75.0 50.0 " stroke="#0366d6" stroke-width="0.7" style="stroke-width:0.7;fill-opacity:1;fill-rule:evenodd;fill:#0366d6" />
    <path d="M 130.0 50.0 L 125.0 60.0 L 125.0 110.0 L 130.0 120.0 L 160.0 120.0 L 160.0 50.0 L 130.0 50.0 Z M 135.0 60.0 L 150.0 60.0 L 150.0 110.0 L 135.0 110.0 Z" stroke="#0366d6" stroke-width="0.7" style="stroke-width:0.7;fill-opacity:1;fill-rule:evenodd;fill:#0366d6" />
    <path d="M 165.0 120.0 L 165.0 50.0 L 225.0 50.0 L 220.0 60.0 L 175.0 60.0 L 175.0 110.0 L 195.0 110.0 L 190.0 120.0 L 165.0 120.0 " stroke="#0366d6" stroke-width="0.7" style="stroke-width:0.7;fill-opacity:1;fill-rule:evenodd;fill:#0366d6" />
    <path d="M 115.0 130.0 L 160.0 218.95134 L 205.0 130.0 L 190.0 130.0 L 160.0 190.0 L 130.0 130.0 L 115.0 130.0 " stroke="#0366d6" stroke-width="0.7" style="stroke-width:0.7;fill-opacity:1;fill-rule:evenodd;fill:#0366d6" />
    <path d="M 195.0 120.0 L 230.0 50.0 L 245.0 50.0 L 210.0 120.0 L 195.0 120.0 " stroke="#0366d6" stroke-width="0.7" style="stroke-width:0.7;fill-opacity:1;fill-rule:evenodd;fill:#0366d6" />
    <path d="M 215.0 120.0 L 220.0 110.0 L 233.171814 110.0 L 263.153748 50.0 L 280.0 50.0 L 247.820541 110.0 L 265.0 110.0 L 260.0 120.0 L 215.0 120.0 " stroke="#0366d6" stroke-width="0.7" style="stroke-width:0.7;fill-opacity:1;fill-rule:evenodd;fill:#0366d6" />
    <path d="M 265.0 120.0 L 285.0 80.0 L 280.0 70.0 L 280.0 60.0 L 285.0 50.0 L 320.0 120.0 L 305.0 120.0 L 290.0 90.0 L 275.0 120.0 L 265.0 120.0 " stroke="#0366d6" stroke-width="0.7" style="stroke-width:0.7;fill-opacity:1;fill-rule:evenodd;fill:#0366d6" />
  </g>
</svg>
