<?xml version="1.0" encoding="UTF-8" standalone="no"?>
<svg
   width="326.4mm"
   height="225.35133999999996mm"
   viewBox="0 0 326.4 225.35133999999996"
   version="1.1"
   id="svg1"
   sodipodi:docname="VelocityNvim_Logo.svg"
   inkscape:version="1.4.2 (ebf0e940d0, 2025-05-08)"
   xmlns:inkscape="http://www.inkscape.org/namespaces/inkscape"
   xmlns:sodipodi="http://sodipodi.sourceforge.net/DTD/sodipodi-0.dtd"
   xmlns:xlink="http://www.w3.org/1999/xlink"
   xmlns="http://www.w3.org/2000/svg"
   xmlns:svg="http://www.w3.org/2000/svg">
  <defs
     id="defs1">
    <linearGradient
       id="linearGradient9"
       inkscape:collect="always">
      <stop
         style="stop-color:#000000;stop-opacity:1;"
         offset="0"
         id="stop10" />
      <stop
         style="stop-color:#000000;stop-opacity:0;"
         offset="1"
         id="stop11" />
    </linearGradient>
    <linearGradient
       inkscape:collect="always"
       xlink:href="#linearGradient9"
       id="linearGradient11"
       x1="-0.46957427"
       y1="109.62219"
       x2="320.56631"
       y2="109.62219"
       gradientUnits="userSpaceOnUse" />
  </defs>
  <sodipodi:namedview
     id="namedview1"
     pagecolor="#ffffff"
     bordercolor="#000000"
     borderopacity="0.25"
     inkscape:showpageshadow="2"
     inkscape:pageopacity="0.0"
     inkscape:pagecheckerboard="0"
     inkscape:deskcolor="#d1d1d1"
     inkscape:document-units="mm"
     showgrid="false"
     inkscape:zoom="1.3114614"
     inkscape:cx="616.10657"
     inkscape:cy="425.09828"
     inkscape:window-width="2560"
     inkscape:window-height="1368"
     inkscape:window-x="0"
     inkscape:window-y="0"
     inkscape:window-maximized="1"
     inkscape:current-layer="svg1" />
  <g
     id="Part__Part2DObjectPython"
     transform="translate(3.200000,222.151340) scale(1,-1)"
     style="fill-opacity:1;fill-rule:evenodd;fill:#ffffff">
    <path
       id="Part__Part2DObjectPython_w0000"
       d="M 45.0 0.0 L 70.0 40.0 L 85.0 40.0 L 70.0 15.0 L 250.0 15.0 L 235.0 40.0 L 250.0 40.0 L 275.0 0.0 L 45.0 0.0 "
       stroke="#ffffff"
       stroke-width="0.7 px"
       style="stroke-width:0.7;stroke-miterlimit:4;stroke-dasharray:none;stroke-linecap:square;fill-opacity:1;fill-rule:evenodd;fill:#ffffff" />
    <path
       id="Part__Part2DObjectPython_w0001"
       d="M 0.0 120.0 L 35.0 50.0 L 40.0 50.0 L 75.0 120.0 L 65.0 120.0 L 40.0 70.0 L 15.0 120.0 L 0.0 120.0 "
       stroke="#ffffff"
       stroke-width="0.7 px"
       style="stroke-width:0.7;stroke-miterlimit:4;stroke-dasharray:none;stroke-linecap:square;fill-opacity:1;fill-rule:evenodd;fill:#ffffff" />
    <path
       id="Part__Part2DObjectPython_w0002"
       d="M 45.0 50.0 L 80.0 120.0 L 105.0 120.0 L 100.0 110.0 L 83.972733 110.0 L 75.0 90.0 L 90.0 90.0 L 85.0 80.0 L 70.0 80.0 L 60.0 60.0 L 75.0 60.0 L 70.0 50.0 L 45.0 50.0 "
       stroke="#ffffff"
       stroke-width="0.7 px"
       style="stroke-width:0.7;stroke-miterlimit:4;stroke-dasharray:none;stroke-linecap:square;fill-opacity:1;fill-rule:evenodd;fill:#ffffff" />
    <path
       id="Part__Part2DObjectPython_w0003"
       d="M 75.0 50.0 L 110.0 120.0 L 125.0 120.0 L 95.0 60.0 L 120.0 60.0 L 125.0 50.0 L 75.0 50.0 "
       stroke="#ffffff"
       stroke-width="0.7 px"
       style="stroke-width:0.7;stroke-miterlimit:4;stroke-dasharray:none;stroke-linecap:square;fill-opacity:1;fill-rule:evenodd;fill:#ffffff" />
    <path
       id="Part__Part2DObjectPython_w0004"
       d="M 130.0 50.0 L 125.0 60.0 L 125.0 110.0 L 130.0 120.0 L 160.0 120.0 L 160.0 50.0 L 130.0 50.0 Z M 135.0 60.0 L 150.0 60.0 L 150.0 110.0 L 135.0 110.0 Z"
       stroke="#ffffff"
       stroke-width="0.7 px"
       style="stroke-width:0.7;stroke-miterlimit:4;stroke-dasharray:none;stroke-linecap:square;fill-opacity:1;fill-rule:evenodd;fill:#ffffff" />
    <path
       id="Part__Part2DObjectPython_w0006"
       d="M 165.0 120.0 L 165.0 50.0 L 225.0 50.0 L 220.0 60.0 L 175.0 60.0 L 175.0 110.0 L 195.0 110.0 L 190.0 120.0 L 165.0 120.0 "
       stroke="#ffffff"
       stroke-width="0.7 px"
       style="stroke-width:0.7;stroke-miterlimit:4;stroke-dasharray:none;stroke-linecap:square;fill-opacity:1;fill-rule:evenodd;fill:#ffffff" />
    <path
       id="Part__Part2DObjectPython_w0007"
       d="M 115.0 130.0 L 160.0 218.95134 L 205.0 130.0 L 190.0 130.0 L 160.0 190.0 L 130.0 130.0 L 115.0 130.0 "
       stroke="#ffffff"
       stroke-width="0.7 px"
       style="stroke-width:0.7;stroke-miterlimit:4;stroke-dasharray:none;stroke-linecap:square;fill-opacity:1;fill-rule:evenodd;fill:#ffffff" />
    <path
       id="Part__Part2DObjectPython_w0008"
       d="M 195.0 120.0 L 230.0 50.0 L 245.0 50.0 L 210.0 120.0 L 195.0 120.0 "
       stroke="#ffffff"
       stroke-width="0.7 px"
       style="stroke-width:0.7;stroke-miterlimit:4;stroke-dasharray:none;stroke-linecap:square;fill-opacity:1;fill-rule:evenodd;fill:#ffffff" />
    <path
       id="Part__Part2DObjectPython_w0009"
       d="M 215.0 120.0 L 220.0 110.0 L 233.171814 110.0 L 263.153748 50.0 L 280.0 50.0 L 247.820541 110.0 L 265.0 110.0 L 260.0 120.0 L 215.0 120.0 "
       stroke="#ffffff"
       stroke-width="0.7 px"
       style="stroke-width:0.7;stroke-miterlimit:4;stroke-dasharray:none;stroke-linecap:square;fill-opacity:1;fill-rule:evenodd;fill:#ffffff" />
    <path
       id="Part__Part2DObjectPython_w0010"
       d="M 265.0 120.0 L 285.0 80.0 L 280.0 70.0 L 280.0 60.0 L 285.0 50.0 L 320.0 120.0 L 305.0 120.0 L 290.0 90.0 L 275.0 120.0 L 265.0 120.0 "
       stroke="#ffffff"
       stroke-width="0.7 px"
       style="stroke-width:0.7;stroke-miterlimit:4;stroke-dasharray:none;stroke-linecap:square;fill-opacity:1;fill-rule:evenodd;fill:#ffffff" />
    <title
       id="title1"
       style="fill:url(#linearGradient11);fill-opacity:1">b'Part__Part2DObjectPython'</title>
  </g>
</svg>
